<svg xmlns="http://www.w3.org/2000/svg" xmlns:xlink="http://www.w3.org/1999/xlink" width="150" zoomAndPan="magnify" viewBox="0 0 112.5 112.499997" height="150" preserveAspectRatio="xMidYMid meet" version="1.0"><defs><clipPath id="id1"><path d="M 1 34 L 27 34 L 27 112.003906 L 1 112.003906 Z M 1 34 " clip-rule="nonzero"/></clipPath><clipPath id="id2"><path d="M 39 34 L 111 34 L 111 112.003906 L 39 112.003906 Z M 39 34 " clip-rule="nonzero"/></clipPath></defs><path fill="#000000" d="M 13.988281 -0.144531 C 7.148438 -0.144531 1.601562 5.398438 1.601562 12.242188 C 1.601562 19.082031 7.148438 24.628906 13.988281 24.628906 C 20.832031 24.628906 26.375 19.082031 26.375 12.242188 C 26.375 5.398438 20.832031 -0.144531 13.988281 -0.144531 Z M 13.988281 -0.144531 " fill-opacity="1" fill-rule="nonzero"/><g clip-path="url(#id1)"><path fill="#000000" d="M 2.332031 34.828125 C 1.929688 34.828125 1.601562 35.15625 1.601562 35.558594 L 1.601562 111.335938 C 1.601562 111.738281 1.929688 112.0625 2.332031 112.0625 L 25.648438 112.0625 C 26.050781 112.0625 26.375 111.738281 26.375 111.335938 L 26.375 35.558594 C 26.375 35.15625 26.050781 34.828125 25.648438 34.828125 Z M 2.332031 34.828125 " fill-opacity="1" fill-rule="nonzero"/></g><g clip-path="url(#id2)"><path fill="#000000" d="M 40.21875 34.828125 C 39.816406 34.828125 39.492188 35.15625 39.492188 35.558594 L 39.492188 111.335938 C 39.492188 111.738281 39.816406 112.0625 40.21875 112.0625 L 63.535156 112.0625 C 63.9375 112.0625 64.265625 111.738281 64.265625 111.335938 L 64.265625 70.53125 C 64.265625 67.632812 65.417969 64.851562 67.464844 62.804688 C 69.515625 60.753906 72.296875 59.601562 75.195312 59.601562 C 78.09375 59.601562 80.871094 60.753906 82.921875 62.804688 C 84.972656 64.851562 86.125 67.632812 86.125 70.53125 L 86.125 111.335938 C 86.125 111.738281 86.449219 112.0625 86.851562 112.0625 L 110.167969 112.0625 C 110.570312 112.0625 110.898438 111.738281 110.898438 111.335938 L 110.898438 61.089844 C 110.898438 46.945312 98.59375 35.878906 84.519531 37.15625 C 80.179688 37.550781 75.886719 38.628906 71.878906 40.347656 L 64.265625 43.613281 L 64.265625 35.558594 C 64.265625 35.15625 63.9375 34.828125 63.535156 34.828125 Z M 40.21875 34.828125 " fill-opacity="1" fill-rule="nonzero"/></g></svg>