<svg xmlns="http://www.w3.org/2000/svg" xmlns:xlink="http://www.w3.org/1999/xlink" width="150" zoomAndPan="magnify" viewBox="0 0 112.5 112.499997" height="150" preserveAspectRatio="xMidYMid meet" version="1.0"><defs><clipPath id="id1"><path d="M 0 11 L 112.003906 11 L 112.003906 103.160156 L 0 103.160156 Z M 0 11 " clip-rule="nonzero"/></clipPath></defs><g clip-path="url(#id1)"><path fill="#000000" d="M 100.878906 34.601562 C 100.949219 35.59375 100.949219 36.582031 100.949219 37.582031 C 100.949219 68.035156 77.78125 103.152344 35.425781 103.152344 L 35.425781 103.132812 C 22.914062 103.15625 10.660156 99.570312 0.128906 92.804688 C 1.945312 93.023438 3.777344 93.132812 5.609375 93.136719 C 15.980469 93.144531 26.050781 89.664062 34.210938 83.253906 C 24.355469 83.066406 15.714844 76.636719 12.695312 67.246094 C 16.148438 67.914062 19.703125 67.777344 23.089844 66.851562 C 12.347656 64.675781 4.617188 55.230469 4.617188 44.261719 C 4.617188 44.160156 4.617188 44.066406 4.617188 43.96875 C 7.820312 45.753906 11.402344 46.742188 15.070312 46.851562 C 4.953125 40.089844 1.832031 26.617188 7.945312 16.082031 C 19.636719 30.480469 36.886719 39.234375 55.402344 40.160156 C 53.546875 32.15625 56.082031 23.769531 62.066406 18.140625 C 71.34375 9.414062 85.929688 9.863281 94.648438 19.140625 C 99.804688 18.125 104.75 16.230469 109.273438 13.546875 C 107.550781 18.882812 103.957031 23.414062 99.148438 26.292969 C 103.714844 25.753906 108.175781 24.53125 112.375 22.664062 C 109.28125 27.300781 105.386719 31.339844 100.878906 34.601562 Z M 100.878906 34.601562 " fill-opacity="1" fill-rule="nonzero"/></g></svg>