<svg xmlns="http://www.w3.org/2000/svg" xmlns:xlink="http://www.w3.org/1999/xlink" width="150" zoomAndPan="magnify" viewBox="0 0 112.5 112.499997" height="150" preserveAspectRatio="xMidYMid meet" version="1.0"><defs><clipPath id="id1"><path d="M 0 0 L 112.003906 0 L 112.003906 112.003906 L 0 112.003906 Z M 0 0 " clip-rule="nonzero"/></clipPath></defs><g clip-path="url(#id1)"><path fill="#000000" d="M 96.1875 16.367188 C 85.667969 5.792969 71.664062 0 56.757812 0 C 26.042969 0 1.011719 25.03125 1.011719 55.742188 C 1.011719 65.585938 3.601562 75.148438 8.4375 83.585938 L 0.5625 112.5 L 30.09375 104.738281 C 38.25 109.179688 47.417969 111.542969 56.757812 111.542969 C 87.46875 111.542969 112.5 86.511719 112.5 55.800781 C 112.5 40.894531 106.707031 26.886719 96.1875 16.367188 Z M 56.757812 102.09375 C 48.429688 102.09375 40.273438 99.84375 33.132812 95.625 L 31.445312 94.613281 L 13.894531 99.226562 L 18.5625 82.125 L 17.4375 80.382812 C 12.824219 73.011719 10.351562 64.460938 10.351562 55.742188 C 10.351562 30.207031 31.164062 9.394531 56.699219 9.394531 C 69.074219 9.394531 80.71875 14.230469 89.4375 23.007812 C 98.210938 31.78125 102.992188 43.425781 102.992188 55.800781 C 103.105469 81.335938 82.292969 102.09375 56.757812 102.09375 Z M 82.179688 67.445312 C 80.773438 66.769531 73.914062 63.394531 72.675781 62.886719 C 71.382812 62.4375 70.480469 62.210938 69.523438 63.5625 C 68.570312 64.96875 65.925781 68.117188 65.136719 69.019531 C 64.351562 69.976562 63.507812 70.085938 62.101562 69.355469 C 60.695312 68.679688 56.195312 67.164062 50.90625 62.4375 C 46.742188 58.726562 43.988281 54.167969 43.144531 52.761719 C 42.355469 51.355469 43.03125 50.625 43.761719 49.894531 C 44.382812 49.273438 45.167969 48.261719 45.84375 47.476562 C 46.519531 46.6875 46.800781 46.070312 47.25 45.167969 C 47.699219 44.210938 47.476562 43.425781 47.136719 42.75 C 46.800781 42.074219 43.988281 35.210938 42.863281 32.398438 C 41.738281 29.699219 40.554688 30.039062 39.710938 29.980469 C 38.867188 29.980469 37.96875 29.980469 37.011719 29.980469 C 36.054688 29.980469 34.59375 30.320312 33.300781 31.726562 C 32.0625 33.132812 28.460938 36.507812 28.460938 43.367188 C 28.460938 50.230469 33.46875 56.867188 34.144531 57.769531 C 34.820312 58.726562 43.988281 72.789062 57.9375 78.804688 C 61.257812 80.269531 63.84375 81.113281 65.867188 81.730469 C 69.1875 82.800781 72.226562 82.632812 74.644531 82.292969 C 77.34375 81.898438 82.914062 78.917969 84.039062 75.65625 C 85.21875 72.394531 85.21875 69.636719 84.824219 69.019531 C 84.429688 68.398438 83.585938 68.117188 82.179688 67.445312 Z M 82.179688 67.445312 " fill-opacity="1" fill-rule="nonzero"/></g></svg>